<svg width="20" height="18" viewBox="0 0 20 18" fill="none" xmlns="http://www.w3.org/2000/svg">
<path fill-rule="evenodd" clip-rule="evenodd" d="M5.35854 0.230209C5.06443 0.0111383 4.64618 0.0354795 4.37966 0.303233L0.301881 4.3999L0.229457 4.48419C0.0122819 4.7783 0.0374507 5.19491 0.304332 5.46056L0.388618 5.53298C0.682732 5.75016 1.09934 5.72499 1.36499 5.45811L4.1611 2.64851V14.4507L4.16795 14.5524C4.21761 14.9185 4.53141 15.2007 4.9111 15.2007C5.32532 15.2007 5.6611 14.8649 5.6611 14.4507V2.64864L8.45744 5.45811L8.54139 5.53092C8.83449 5.74945 9.25121 5.72621 9.51809 5.46056C9.81166 5.16834 9.81276 4.69347 9.52055 4.3999L5.44277 0.303233L5.43757 0.298727C5.41468 0.276166 5.39035 0.255066 5.36473 0.235576L5.35854 0.230209ZM15.5827 3.44468C15.533 3.0786 15.2192 2.79645 14.8395 2.79645C14.4253 2.79645 14.0895 3.13223 14.0895 3.54645V15.3481L11.2932 12.539L11.2093 12.4662C10.9162 12.2477 10.4994 12.2709 10.2326 12.5366C9.93898 12.8288 9.93789 13.3036 10.2301 13.5972L14.3079 17.6939L14.3131 17.6984C14.336 17.721 14.3603 17.7421 14.3859 17.7615L14.3921 17.7669C14.6862 17.986 15.1045 17.9616 15.371 17.6939L19.4488 13.5972L19.5212 13.5129C19.7384 13.2188 19.7132 12.8022 19.4463 12.5366C19.1527 12.2443 18.6779 12.2454 18.3857 12.539L15.5895 15.3472V3.54645L15.5827 3.44468Z" fill="#F52D20"/>
</svg>
