<svg width="16" height="18" viewBox="0 0 16 18" fill="none" xmlns="http://www.w3.org/2000/svg">
<path fill-rule="evenodd" clip-rule="evenodd" d="M0.5 13.0583V6.71414H15.5V13.1091C15.5 15.725 13.8535 17.3333 11.219 17.3333H4.77278C2.16301 17.3333 0.5 15.6916 0.5 13.0583ZM4.63282 11.0083C4.25412 11.0258 3.94127 10.725 3.92481 10.3425C3.92481 9.95914 4.22119 9.64248 4.59989 9.62498C4.97036 9.62498 5.27497 9.91748 5.28321 10.2916C5.29967 10.6758 5.00329 10.9925 4.63282 11.0083ZM8.01647 11.0083C7.63776 11.0258 7.32492 10.725 7.30845 10.3425C7.30845 9.95914 7.60483 9.64248 7.98353 9.62498C8.35401 9.62498 8.65862 9.91748 8.66685 10.2916C8.68332 10.6758 8.38694 10.9925 8.01647 11.0083ZM11.3754 14.075C10.9967 14.0666 10.6921 13.75 10.6921 13.3666C10.6839 12.9833 10.9885 12.6675 11.3672 12.6591H11.3754C11.7623 12.6591 12.0752 12.9758 12.0752 13.3666C12.0752 13.7583 11.7623 14.075 11.3754 14.075ZM7.30845 13.3666C7.32492 13.75 7.63776 14.0508 8.01647 14.0333C8.38694 14.0175 8.68332 13.7008 8.66685 13.3175C8.65862 12.9425 8.35401 12.65 7.98353 12.65C7.60483 12.6675 7.30845 12.9833 7.30845 13.3666ZM3.91658 13.3666C3.93304 13.75 4.24588 14.0508 4.62459 14.0333C4.99506 14.0175 5.29144 13.7008 5.27497 13.3175C5.26674 12.9425 4.96213 12.65 4.59166 12.65C4.21295 12.6675 3.91658 12.9833 3.91658 13.3666ZM10.7003 10.3341C10.7003 9.95081 10.9967 9.64248 11.3754 9.63414C11.7459 9.63414 12.0423 9.93331 12.0587 10.3008C12.067 10.6841 11.7706 11.0008 11.4001 11.0083C11.0214 11.0166 10.7086 10.725 10.7003 10.3425V10.3341Z" fill="#585F80"/>
<path opacity="0.4" d="M0.502808 6.71407C0.51351 6.2249 0.554674 5.25407 0.632061 4.94157C1.02723 3.18407 2.36916 2.0674 4.28739 1.90823H11.7133C13.615 2.07573 14.9734 3.1999 15.3686 4.94157C15.4452 5.24573 15.4863 6.22407 15.497 6.71407H0.502808Z" fill="#585F80"/>
<path d="M4.92072 4.49166C5.28296 4.49166 5.55464 4.21749 5.55464 3.84999V1.30916C5.55464 0.941657 5.28296 0.666656 4.92072 0.666656C4.55848 0.666656 4.2868 0.941657 4.2868 1.30916V3.84999C4.2868 4.21749 4.55848 4.49166 4.92072 4.49166Z" fill="#585F80"/>
<path d="M11.0791 4.49166C11.4331 4.49166 11.713 4.21749 11.713 3.84999V1.30916C11.713 0.941657 11.4331 0.666656 11.0791 0.666656C10.7169 0.666656 10.4452 0.941657 10.4452 1.30916V3.84999C10.4452 4.21749 10.7169 4.49166 11.0791 4.49166Z" fill="#585F80"/>
</svg>
