<svg width="20" height="20" viewBox="0 0 20 20" fill="none" xmlns="http://www.w3.org/2000/svg">
<path d="M14.5833 5.41669L15.8333 4.16669M13.3333 10.3217C12.8299 10.6938 12.2097 10.8729 11.5855 10.8264C10.9612 10.7799 10.3744 10.5109 9.93175 10.0682C9.48911 9.62559 9.22006 9.03877 9.17354 8.41451C9.12703 7.79025 9.30614 7.17004 9.67829 6.66669L13.3333 10.3217ZM9.99996 1.66669V3.33335V1.66669ZM9.99996 16.6667V18.3334V16.6667ZM4.16663 4.16669L5.41663 5.41669L4.16663 4.16669ZM14.5833 14.5834L15.8333 15.8334L14.5833 14.5834ZM1.66663 10H3.33329H1.66663ZM16.6666 10H18.3333H16.6666ZM4.16663 15.8334L5.41663 14.5834L4.16663 15.8334Z" stroke="#E6A500" stroke-width="1.5" stroke-linecap="round" stroke-linejoin="round"/>
</svg>
