<svg width="26" height="20" viewBox="0 0 26 20" fill="none" xmlns="http://www.w3.org/2000/svg">
<path fill-rule="evenodd" clip-rule="evenodd" d="M12.9274 0.0104065C9.94596 0.0104065 7.55114 2.40523 7.55114 5.3867C7.55114 8.36904 9.94577 10.7641 12.9274 10.7641C15.9091 10.7641 18.3037 8.36904 18.3037 5.3867C18.3037 2.40523 15.9089 0.0104065 12.9274 0.0104065ZM12.9274 1.76041C14.9424 1.76041 16.5537 3.37173 16.5537 5.3867C16.5537 7.40261 14.9425 9.01406 12.9274 9.01406C10.9123 9.01406 9.30114 7.40261 9.30114 5.3867C9.30114 3.37173 10.9125 1.76041 12.9274 1.76041ZM6.33837 1.10926C6.82162 1.10926 7.21337 1.50101 7.21337 1.98426C7.21337 2.46751 6.82162 2.85926 6.33837 2.85926C4.95194 2.85926 3.82751 3.9832 3.82751 5.36905C3.82751 6.7549 4.95194 7.87884 6.33837 7.87884C6.82162 7.87884 7.21337 8.27059 7.21337 8.75384C7.21337 9.23709 6.82162 9.62884 6.33837 9.62884C3.98562 9.62884 2.07751 7.72157 2.07751 5.36905C2.07751 3.01653 3.98562 1.10926 6.33837 1.10926ZM23.7883 5.36905C23.7883 3.01653 21.8802 1.10926 19.5274 1.10926C19.0442 1.10926 18.6524 1.50101 18.6524 1.98426C18.6524 2.46751 19.0442 2.85926 19.5274 2.85926C20.9138 2.85926 22.0383 3.9832 22.0383 5.36905C22.0383 6.7549 20.9138 7.87884 19.5274 7.87884C19.0442 7.87884 18.6524 8.27059 18.6524 8.75384C18.6524 9.23709 19.0442 9.62884 19.5274 9.62884C21.8802 9.62884 23.7883 7.72157 23.7883 5.36905ZM22.9119 11.8141C22.3516 11.6877 21.7529 11.6013 21.1442 11.5593C20.6621 11.526 20.2443 11.8899 20.2111 12.372C20.1778 12.8541 20.5417 13.2719 21.0238 13.3051C21.5447 13.3411 22.0552 13.4148 22.5516 13.5265C23.3236 13.678 23.8269 13.929 23.9518 14.1908C24.0458 14.3884 24.0458 14.6207 23.9509 14.8207C23.8277 15.0798 23.3286 15.3296 22.5675 15.4861C22.0942 15.5834 21.7894 16.0461 21.8867 16.5194C21.984 16.9927 22.4467 17.2976 22.92 17.2002C24.1779 16.9416 25.0993 16.4803 25.5316 15.5715C25.8522 14.8958 25.8522 14.1121 25.5317 13.4382C25.0963 12.5259 24.159 12.0583 22.9119 11.8141ZM5.65472 12.372C5.62147 11.8899 5.2037 11.526 4.72159 11.5593C4.11284 11.6013 3.51414 11.6877 2.92991 11.8192L2.68905 11.8701C1.58349 12.1227 0.74005 12.587 0.335202 13.4381C0.0133722 14.1114 0.0133722 14.8965 0.335541 15.5722C0.765954 16.4801 1.68736 16.9415 2.94578 17.2002C3.41912 17.2976 3.88175 16.9927 3.97909 16.5194C4.07642 16.0461 3.77161 15.5834 3.29826 15.4861C2.53749 15.3296 2.03889 15.08 1.91601 14.8208C1.82028 14.62 1.82028 14.3891 1.91483 14.1912C2.03965 13.9288 2.54244 13.6779 3.29013 13.5315L3.6789 13.4519C4.06644 13.3803 4.45129 13.3321 4.842 13.3051C5.3241 13.2719 5.68797 12.8541 5.65472 12.372ZM5.02832 16.0486C5.02832 13.265 7.90758 12.2861 12.9274 12.2861L13.2831 12.2878C18.0932 12.333 20.8265 13.3141 20.8265 16.0283C20.8265 18.6786 18.2137 19.6934 13.6297 19.7841L12.9274 19.7908C7.89608 19.7908 5.02832 18.8291 5.02832 16.0486ZM19.0765 16.0283C19.0765 14.7327 16.9992 14.0361 12.9274 14.0361C8.85961 14.0361 6.77832 14.7437 6.77832 16.0486C6.77832 17.3444 8.85497 18.0408 12.9274 18.0408C16.994 18.0408 19.0765 17.3326 19.0765 16.0283Z" fill="#DDEFFA"/>
</svg>
