<svg width="16" height="18" viewBox="0 0 16 18" fill="none" xmlns="http://www.w3.org/2000/svg">
<path fill-rule="evenodd" clip-rule="evenodd" d="M0.5 13.0583V6.71417H15.5V13.1092C15.5 15.725 13.8535 17.3333 11.219 17.3333H4.77278C2.16301 17.3333 0.5 15.6917 0.5 13.0583ZM4.63282 11.0083C4.25412 11.0258 3.94127 10.725 3.92481 10.3425C3.92481 9.95917 4.22119 9.6425 4.59989 9.625C4.97036 9.625 5.27497 9.9175 5.28321 10.2917C5.29967 10.6758 5.00329 10.9925 4.63282 11.0083ZM8.01647 11.0083C7.63776 11.0258 7.32492 10.725 7.30845 10.3425C7.30845 9.95917 7.60483 9.6425 7.98353 9.625C8.35401 9.625 8.65862 9.9175 8.66685 10.2917C8.68332 10.6758 8.38694 10.9925 8.01647 11.0083ZM11.3754 14.075C10.9967 14.0667 10.6921 13.75 10.6921 13.3667C10.6839 12.9833 10.9885 12.6675 11.3672 12.6592H11.3754C11.7623 12.6592 12.0752 12.9758 12.0752 13.3667C12.0752 13.7583 11.7623 14.075 11.3754 14.075ZM7.30845 13.3667C7.32492 13.75 7.63776 14.0508 8.01647 14.0333C8.38694 14.0175 8.68332 13.7008 8.66685 13.3175C8.65862 12.9425 8.35401 12.65 7.98353 12.65C7.60483 12.6675 7.30845 12.9833 7.30845 13.3667ZM3.91658 13.3667C3.93304 13.75 4.24588 14.0508 4.62459 14.0333C4.99506 14.0175 5.29144 13.7008 5.27497 13.3175C5.26674 12.9425 4.96213 12.65 4.59166 12.65C4.21295 12.6675 3.91658 12.9833 3.91658 13.3667ZM10.7003 10.3342C10.7003 9.95083 10.9967 9.6425 11.3754 9.63417C11.7459 9.63417 12.0423 9.93333 12.0587 10.3008C12.067 10.6842 11.7706 11.0008 11.4001 11.0083C11.0214 11.0167 10.7086 10.725 10.7003 10.3425V10.3342Z" fill="#585F80"/>
<path opacity="0.4" d="M0.502808 6.71408C0.51351 6.22492 0.554674 5.25408 0.632061 4.94158C1.02723 3.18408 2.36916 2.06742 4.28739 1.90825H11.7133C13.615 2.07575 14.9734 3.19992 15.3686 4.94158C15.4452 5.24575 15.4863 6.22408 15.497 6.71408H0.502808Z" fill="#585F80"/>
<path d="M4.92072 4.49167C5.28296 4.49167 5.55464 4.2175 5.55464 3.85V1.30917C5.55464 0.941667 5.28296 0.666667 4.92072 0.666667C4.55848 0.666667 4.2868 0.941667 4.2868 1.30917V3.85C4.2868 4.2175 4.55848 4.49167 4.92072 4.49167Z" fill="#585F80"/>
<path d="M11.0791 4.49167C11.4331 4.49167 11.713 4.2175 11.713 3.85V1.30917C11.713 0.941667 11.4331 0.666667 11.0791 0.666667C10.7169 0.666667 10.4452 0.941667 10.4452 1.30917V3.85C10.4452 4.2175 10.7169 4.49167 11.0791 4.49167Z" fill="#585F80"/>
</svg>
